<?xml version="1.0" encoding="UTF-8" standalone="no"?>
<!-- Created with Inkscape (http://www.inkscape.org/) -->

<svg
   width="76.199989mm"
   height="76.199997mm"
   viewBox="0 0 76.199989 76.199997"
   version="1.1"
   id="svg5"
   inkscape:version="1.1 (c4e8f9e, 2021-05-24)"
   sodipodi:docname="logo.svg"
   inkscape:export-filename="/Users/pmarty/Patrick/95_Misc/03_Websites/TheLocalIbex/the-local-ibex-source/static/logo.png"
   inkscape:export-xdpi="341.32999"
   inkscape:export-ydpi="341.32999"
   xmlns:inkscape="http://www.inkscape.org/namespaces/inkscape"
   xmlns:sodipodi="http://sodipodi.sourceforge.net/DTD/sodipodi-0.dtd"
   xmlns:xlink="http://www.w3.org/1999/xlink"
   xmlns="http://www.w3.org/2000/svg"
   xmlns:svg="http://www.w3.org/2000/svg">
  <sodipodi:namedview
     id="namedview7"
     pagecolor="#ffffff"
     bordercolor="#666666"
     borderopacity="1.0"
     inkscape:pageshadow="2"
     inkscape:pageopacity="0.0"
     inkscape:pagecheckerboard="0"
     inkscape:document-units="mm"
     showgrid="false"
     showguides="true"
     inkscape:guide-bbox="true"
     inkscape:zoom="1.8254174"
     inkscape:cx="-11.230308"
     inkscape:cy="120.24647"
     inkscape:window-width="3440"
     inkscape:window-height="1395"
     inkscape:window-x="0"
     inkscape:window-y="23"
     inkscape:window-maximized="0"
     inkscape:current-layer="layer4"
     inkscape:snap-global="false"
     inkscape:snap-midpoints="false"
     inkscape:snap-intersection-paths="true"
     inkscape:snap-smooth-nodes="true"
     inkscape:object-paths="false"
     inkscape:object-nodes="true"
     inkscape:snap-bbox="false"
     inkscape:snap-center="true">
    <sodipodi:guide
       position="63.032978,76.199994"
       orientation="0,-1"
       id="guide861" />
    <sodipodi:guide
       position="76.199998,1.5184945e-05"
       orientation="0,-1"
       id="guide863" />
    <sodipodi:guide
       position="-2.0213137e-07,1.8184944e-05"
       orientation="1,0"
       id="guide4433" />
    <sodipodi:guide
       position="76.199988,1.8184944e-05"
       orientation="1,0"
       id="guide4591" />
    <sodipodi:guide
       position="38.099999,76.199994"
       orientation="1,0"
       id="guide4593" />
    <sodipodi:guide
       position="-2.0213137e-07,38.100006"
       orientation="0,-1"
       id="guide4595" />
    <sodipodi:guide
       position="35.963153,51.356669"
       orientation="1,0"
       id="guide3544" />
    <sodipodi:guide
       position="35.963153,51.356669"
       orientation="0,-1"
       id="guide3546" />
  </sodipodi:namedview>
  <defs
     id="defs2">
    <linearGradient
       inkscape:collect="always"
       id="linearGradient4575">
      <stop
         style="stop-color:#8ed6fb;stop-opacity:1"
         offset="0"
         id="stop4571" />
      <stop
         style="stop-color:#20112f;stop-opacity:1"
         offset="1"
         id="stop4573" />
    </linearGradient>
    <inkscape:path-effect
       effect="bspline"
       id="path-effect6373"
       is_visible="true"
       lpeversion="1"
       weight="33.333333"
       steps="2"
       helper_size="0"
       apply_no_weight="true"
       apply_with_weight="true"
       only_selected="false" />
    <inkscape:path-effect
       effect="bspline"
       id="path-effect6216"
       is_visible="true"
       lpeversion="1"
       weight="33.333333"
       steps="2"
       helper_size="0"
       apply_no_weight="true"
       apply_with_weight="true"
       only_selected="false" />
    <inkscape:path-effect
       effect="bspline"
       id="path-effect3818"
       is_visible="true"
       lpeversion="1"
       weight="33.333333"
       steps="2"
       helper_size="0"
       apply_no_weight="true"
       apply_with_weight="true"
       only_selected="false" />
    <inkscape:path-effect
       effect="bspline"
       id="path-effect3146"
       is_visible="true"
       lpeversion="1"
       weight="33.333333"
       steps="2"
       helper_size="0"
       apply_no_weight="true"
       apply_with_weight="true"
       only_selected="false" />
    <inkscape:path-effect
       effect="bspline"
       id="path-effect1019"
       is_visible="true"
       lpeversion="1"
       weight="33.333333"
       steps="2"
       helper_size="0"
       apply_no_weight="true"
       apply_with_weight="true"
       only_selected="false" />
    <radialGradient
       inkscape:collect="always"
       xlink:href="#linearGradient4575"
       id="radialGradient1676"
       cx="113.02798"
       cy="149.84587"
       fx="113.02798"
       fy="149.84587"
       r="38.099995"
       gradientUnits="userSpaceOnUse"
       gradientTransform="matrix(1.2074553,0,0,1.2074553,-23.448255,-31.086325)" />
  </defs>
  <g
     inkscape:groupmode="layer"
     id="layer2"
     inkscape:label="background"
     style="display:inline"
     transform="translate(-77.035719,-124.91925)"
     sodipodi:insensitive="true">
    <rect
       style="fill:#000000;fill-opacity:1;stroke:none;stroke-width:0.25"
       id="rect865"
       width="76.199989"
       height="76.199989"
       x="77.035721"
       y="124.91925" />
  </g>
  <g
     inkscape:groupmode="layer"
     id="g1269"
     inkscape:label="background_color"
     style="display:none"
     transform="translate(-77.035719,-124.91925)">
    <rect
       style="opacity:1;fill:url(#radialGradient1676);fill-opacity:1;fill-rule:nonzero;stroke:none;stroke-width:0.25"
       id="rect1267"
       width="76.199997"
       height="76.199989"
       x="77.035721"
       y="124.91925" />
  </g>
  <g
     inkscape:groupmode="layer"
     id="layer3"
     inkscape:label="silhouette"
     style="display:inline"
     transform="translate(-77.035719,-124.91925)"
     sodipodi:insensitive="true">
    <path
       style="fill:#ffffff;fill-opacity:1;stroke:none;stroke-width:0.25"
       d="m 77.035859,166.52169 c 7.607336,3.47047 15.21499,6.94108 20.549199,9.6494 5.334212,2.70832 8.394882,4.65416 11.455912,6.60024 -0.0221,-1.27551 -0.0441,-2.55075 -0.19064,-3.51663 -0.14652,-0.96589 -0.41759,-1.62217 -0.85273,-2.46397 -0.43514,-0.84179 -1.03436,-1.86903 -1.46243,-2.76788 -0.42806,-0.89886 -0.68487,-1.66929 -1.09147,-2.58241 -0.4066,-0.91313 -0.96301,-1.9689 -1.4481,-2.85349 -0.48509,-0.88459 -0.89884,-1.59795 -1.03449,-2.45405 -0.13564,-0.8561 0.007,-1.8548 0.34231,-2.92493 0.33528,-1.07012 0.86316,-2.2115 1.3126,-3.75949 0.44943,-1.54799 0.82038,-3.50259 1.23413,-5.03638 0.41375,-1.5338 0.8703,-2.64664 1.41248,-3.64541 0.54218,-0.99877 1.16994,-1.88335 1.38403,-2.58945 0.21408,-0.70611 0.0143,-1.234 -0.0998,-1.6121 -0.11418,-0.37811 -0.14271,-0.60638 -0.12134,-0.99877 0.0214,-0.39239 0.0927,-0.94882 0.22835,-1.26284 0.13563,-0.31402 0.33537,-0.38536 0.54938,-0.19256 0.21402,0.1928 0.44229,0.64935 0.692,1.08451 0.2497,0.43515 0.52078,0.8489 0.91314,1.00567 0.39236,0.15677 0.90598,0.0569 1.07711,-0.49224 0.17113,-0.54913 -7e-5,-1.54783 -0.34959,-2.73918 -0.34953,-1.19134 -0.87741,-2.57525 -1.49091,-4.00914 -0.61349,-1.43389 -1.31258,-2.91767 -1.8904,-4.05908 -0.57783,-1.14141 -1.03438,-1.94037 -1.59077,-2.66091 -0.55639,-0.72053 -1.21268,-1.36256 -1.84756,-1.78353 -0.63488,-0.42097 -1.24837,-0.62071 -1.98984,-0.5688 -0.74148,0.0519 -1.61075,0.35565 -1.86765,0.30575 -0.2569,-0.0499 0.0988,-0.45351 0.57625,-0.81942 0.47751,-0.36592 1.07673,-0.69406 1.74027,-0.8367 0.66354,-0.14264 1.39116,-0.0998 1.94047,-0.0142 0.54932,0.0857 0.92027,0.21405 1.15349,0.39591 0.23322,0.18185 0.32889,0.41695 0.50386,0.50204 0.17496,0.0851 0.42916,0.0205 0.64711,0.0529 0.21795,0.0324 0.39953,0.16154 0.48815,0.36937 0.0886,0.20783 0.0846,0.49431 0.25822,0.63742 0.17364,0.14311 0.52468,0.14311 0.80109,0.23604 0.2764,0.0929 0.47815,0.27854 0.55869,0.49642 0.0805,0.21787 0.0402,0.46803 0.19571,0.61118 0.15552,0.14316 0.50655,0.17947 0.73852,0.2825 0.23197,0.10303 0.34495,0.2725 0.3751,0.52667 0.0301,0.25416 -0.0223,0.59309 -0.0323,0.80904 -0.01,0.21595 0.0222,0.30871 0.20992,0.33881 0.18769,0.0301 0.53067,-0.002 0.74245,0.0787 0.21179,0.0809 0.30842,0.31279 0.25331,0.46042 -0.0551,0.14763 -0.30038,0.34422 -0.26316,0.45175 0.0372,0.10752 0.30373,0.13159 0.4696,0.22776 0.16588,0.0962 0.21064,0.26212 0.17992,0.51435 -0.0307,0.25223 -0.13665,0.5898 0.001,0.74375 0.13775,0.15396 0.51872,0.12387 0.77216,0.22714 0.25344,0.10326 0.37921,0.33955 0.36813,0.60739 -0.0111,0.26784 -0.15879,0.56741 -0.0832,0.77976 0.0756,0.21235 0.37421,0.33744 0.57588,0.49691 0.20168,0.15947 0.30659,0.35315 0.26815,0.59917 -0.0384,0.24602 -0.22001,0.5446 -0.17122,0.72635 0.0488,0.18176 0.32755,0.24666 0.52119,0.39777 0.19363,0.15112 0.3022,0.38812 0.28982,0.58955 -0.0124,0.20144 -0.14556,0.36755 -0.14754,0.72715 -0.002,0.3596 0.12713,0.91239 0.29266,1.18055 0.16552,0.26817 0.36727,0.25203 0.49625,0.0121 0.12898,-0.23996 0.18547,-0.70398 0.18549,-1.36166 3e-5,-0.65769 -0.0565,-1.50906 -0.23598,-2.39675 -0.17951,-0.8877 -0.48213,-1.8117 -0.86135,-2.51986 -0.37922,-0.70817 -0.83517,-1.20043 -1.21847,-1.52733 -0.3833,-0.32689 -0.69386,-0.48822 -1.18695,-0.60255 -0.4931,-0.11434 -1.16785,-0.18135 -2.10501,-0.0385 -0.93717,0.14287 -2.13621,0.49572 -2.74366,0.54082 -0.60745,0.0451 -0.62328,-0.21786 -0.0248,-0.60877 0.59843,-0.39091 1.81086,-0.90936 2.55136,-1.13123 0.74051,-0.22188 1.00865,-0.14726 1.17583,-0.16726 0.16717,-0.02 0.23361,-0.13458 0.37018,-0.20698 0.13657,-0.0724 0.34272,-0.10238 0.49915,-0.0206 0.15643,0.0818 0.26287,0.2748 0.38937,0.27616 0.1265,10e-4 0.27301,-0.18864 0.45697,-0.25754 0.18396,-0.0689 0.40449,-0.0166 0.5435,0.11691 0.13902,0.13353 0.196,0.34714 0.28528,0.35794 0.0893,0.0108 0.21054,-0.18154 0.36215,-0.22484 0.1516,-0.0433 0.33398,0.0625 0.40805,0.23623 0.0741,0.17373 0.0408,0.41561 0.12578,0.47188 0.085,0.0563 0.28656,-0.0724 0.45963,-0.0968 0.17307,-0.0244 0.31359,0.0559 0.39212,0.22136 0.0785,0.16549 0.0947,0.41565 0.25818,0.52041 0.16352,0.10476 0.47421,0.0644 0.69213,0.10288 0.21792,0.0385 0.343,0.15549 0.40339,0.36129 0.0604,0.20579 0.0563,0.50034 0.16339,0.63133 0.10705,0.131 0.32493,0.0987 0.52063,0.19776 0.1957,0.099 0.3692,0.32902 0.4195,0.55896 0.0503,0.22994 -0.0223,0.45992 0.0626,0.60716 0.0849,0.14723 0.32703,0.21179 0.48428,0.36322 0.15726,0.15143 0.22989,0.38949 0.19554,0.58706 -0.0344,0.19757 -0.17558,0.35493 -0.12902,0.52249 0.0466,0.16756 0.28059,0.3451 0.43179,0.57514 0.15121,0.23004 0.2198,0.51249 0.16325,0.76857 -0.0565,0.25609 -0.23811,0.48608 -0.21575,0.67783 0.0224,0.19175 0.24832,0.34508 0.3672,0.54485 0.11888,0.19976 0.13099,0.44608 -0.007,0.70614 -0.13775,0.26006 -0.42553,0.53472 -0.45941,0.79313 -0.0339,0.25842 0.18554,0.49941 0.3376,0.80026 0.15206,0.30085 0.23603,0.65987 0.15094,0.93425 -0.0851,0.27439 -0.33927,0.46402 -0.38359,0.7063 -0.0443,0.24228 0.12111,0.53683 0.18153,0.78694 0.0604,0.25011 0.016,0.45589 -0.10098,0.67976 -0.11701,0.22386 -0.30665,0.46596 -0.32671,0.69205 -0.02,0.2261 0.12925,0.43591 0.1957,0.59728 0.0665,0.16136 0.0503,0.27434 -0.0464,0.3771 -0.0968,0.10276 -0.27431,0.19555 -0.30654,0.33898 -0.0322,0.14343 0.0807,0.33711 0.12205,0.56439 0.0413,0.22729 0.0112,0.48826 -0.0583,0.74382 -0.0695,0.25557 -0.1783,0.50584 -0.25991,0.72349 -0.0816,0.21764 -0.13602,0.40264 -0.14141,0.6965 -0.005,0.29386 0.0381,0.69645 0.16878,1.07187 0.13066,0.37541 0.34829,0.72362 0.60941,1.25137 0.26113,0.52775 0.5658,1.23503 0.63306,1.67166 0.0673,0.43662 -0.10277,0.60292 -0.15917,0.7979 -0.0564,0.19498 7.3e-4,0.41834 -0.0357,0.63379 -0.0364,0.21546 -0.16628,0.42323 -0.2986,0.53228 -0.13232,0.10904 -0.26737,0.11944 -0.41554,0.22076 -0.14818,0.10132 -0.30921,0.29352 -0.50394,0.44152 -0.19472,0.14801 -0.42328,0.2519 -0.71149,0.16892 -0.28821,-0.083 -0.63624,-0.35309 -1.02335,-0.34543 -0.38711,0.008 -0.81305,0.29336 -1.05977,0.34288 -0.24671,0.0495 -0.31423,-0.13747 -0.44402,-0.31672 -0.12978,-0.17925 -0.32197,-0.35066 -0.4598,-0.37152 -0.13782,-0.0208 -0.22092,0.10899 -0.18441,0.25973 0.0365,0.15075 0.19234,0.32217 0.27792,0.97149 0.0856,0.64932 0.10115,1.7765 0.24408,2.5609 0.14293,0.7844 0.41305,1.22593 0.69094,1.73759 0.27789,0.51167 0.56358,1.09344 1.12208,1.61542 0.5585,0.52199 1.3896,0.98428 2.16358,1.53495 0.77397,0.55066 1.4908,1.18957 2.1609,1.76097 0.6701,0.57139 1.29343,1.07525 1.85446,1.40504 0.56102,0.32978 1.05968,0.48561 1.50896,0.85193 0.44928,0.36633 0.84924,0.9429 1.39469,1.66494 0.54544,0.72205 1.23629,1.58951 1.73757,2.20765 0.50128,0.61815 0.81295,0.98696 1.17911,1.68565 0.36616,0.69868 0.7869,1.72718 1.05958,2.5505 0.27268,0.82333 0.39735,1.44147 0.38431,2.15308 -0.013,0.7116 -0.16367,1.51673 -0.28315,2.17644 -0.11947,0.65971 -0.20778,1.17397 -0.2805,1.79993 -0.0727,0.62596 -0.12985,1.36356 -0.21037,2.06481 -0.0805,0.70126 -0.18441,1.36614 -0.14797,1.91682 0.0365,0.55067 0.21305,0.98699 0.29349,1.38695 0.0804,0.39995 0.0648,0.76355 0.0778,1.2077 0.013,0.44416 0.0546,0.96879 0.13252,1.38957 0.078,0.42077 0.19225,0.73763 0.30653,1.0545 0.11428,0.31686 0.22855,0.63372 0.24665,0.91416 0.0181,0.28044 -0.0598,0.52456 -0.0787,0.71906 -0.0189,0.1945 0.0211,0.3389 0.0612,0.48361 0,0 13.31248,7.42044 13.31248,7.42044 0,0 -68.354825,0.10783 -68.354825,0.10783 0,0 0.324107,-36.75786 0.324107,-36.75786 0,0 1.620677,0.75604 1.620677,0.75604 z"
       id="path1017"
       inkscape:path-effect="#path-effect1019"
       inkscape:original-d="m 77.035859,166.52169 c 0,0 15.214938,6.9412 22.822009,10.41141 3.061352,1.94638 9.183102,5.83823 9.183102,5.83823 0,0 -0.0439,-2.55075 -0.0662,-3.82652 -0.27083,-0.65605 -0.5419,-1.31234 -0.81325,-1.96891 -0.59898,-1.02701 -1.1982,-2.05425 -1.7977,-3.08177 -0.25655,-0.77019 -0.51336,-1.54062 -0.77044,-2.31132 -0.55618,-1.05555 -1.1126,-2.11132 -1.66929,-3.16738 -0.4135,-0.71312 -0.82725,-1.42648 -1.24127,-2.14011 0.14294,-0.99848 0.28562,-1.99718 0.42803,-2.99617 0.52817,-1.14115 1.05605,-2.28253 1.58368,-3.42419 0.37123,-1.95441 0.74217,-3.90901 1.11286,-5.86392 0.45683,-1.11261 0.91338,-2.22545 1.36968,-3.33858 0.62804,-0.88433 1.2558,-1.7689 1.8833,-2.65375 -0.19948,-0.52764 -0.39922,-1.05552 -0.59923,-1.58368 -0.0283,-0.22802 -0.0568,-0.4563 -0.0856,-0.68484 0.0716,-0.55617 0.14294,-1.1126 0.21402,-1.66929 0.20001,-0.0711 0.39975,-0.14241 0.59923,-0.21401 0.22855,0.45683 0.45682,0.91338 0.68483,1.36967 0.27136,0.41403 0.54243,0.82778 0.81325,1.24127 0.5139,-0.0996 1.02752,-0.19948 1.54088,-0.29962 -0.17094,-0.99847 -0.34215,-1.99717 -0.51362,-2.99616 -0.52765,-1.38371 -1.05553,-2.76762 -1.58369,-4.15183 -0.69885,-1.48358 -1.39794,-2.96736 -2.09732,-4.45144 -0.4563,-0.79873 -0.91285,-1.59769 -1.36967,-2.39693 -0.65605,-0.64178 -1.31234,-1.28381 -1.96891,-1.92611 -0.61324,-0.19948 -1.22673,-0.39922 -1.8405,-0.59923 -0.86902,0.304 -1.73829,0.60772 -2.60783,0.91119 0.35591,-0.40334 0.71156,-0.80694 1.06695,-1.21081 0.59951,-0.32789 1.19873,-0.65603 1.7977,-0.98445 0.72792,0.0431 1.45554,0.0859 2.18291,0.12841 0.37123,0.12867 0.74218,0.25708 1.11287,0.38522 0.0959,0.23537 0.1916,0.47046 0.28701,0.70529 0.25447,-0.0643 0.50867,-0.12885 0.76261,-0.19368 0.18184,0.12939 0.36342,0.25851 0.54473,0.38736 -0.004,0.28676 -0.008,0.57324 -0.0121,0.85946 0.35131,2.6e-4 0.70235,2.6e-4 1.05313,0 0.20202,0.18588 0.40377,0.37148 0.60525,0.55683 -0.0401,0.25044 -0.0804,0.5006 -0.12105,0.75051 0.35132,0.0366 0.70236,0.0729 1.05314,0.10895 0.11325,0.16973 0.22623,0.3392 0.33894,0.50841 -0.0522,0.33921 -0.10464,0.67814 -0.15737,1.01682 0.0326,0.0931 0.0648,0.18587 0.0968,0.27842 0.34325,-0.032 0.68622,-0.0643 1.02893,-0.0968 0.081,0.19394 0.1776,0.42586 0.2421,0.58104 -0.17462,0.14043 -0.41989,0.33702 -0.65372,0.52396 0.30803,0.028 0.57453,0.0521 0.8614,0.0778 0.0451,0.16638 0.0898,0.33234 0.13443,0.49833 -0.1059,0.33861 -0.21183,0.67618 -0.31821,1.01412 0.38161,-0.0298 0.76258,-0.0599 1.14349,-0.0903 0.12604,0.23656 0.25181,0.47285 0.37732,0.70889 -0.14745,0.29985 -0.29517,0.59942 -0.44315,0.89874 0.29886,0.12535 0.59744,0.25044 0.89577,0.37526 0.10518,0.19394 0.21008,0.38762 0.31473,0.58104 -0.18131,0.29886 -0.36288,0.59744 -0.54472,0.89577 0.27906,0.0652 0.55783,0.13008 0.83639,0.19474 0.10887,0.23732 0.21744,0.47433 0.32577,0.7111 -0.13292,0.16638 -0.2661,0.33249 -0.39955,0.49834 0.12939,0.55307 0.25851,1.10586 0.38736,1.65839 0.20202,-0.0159 0.40377,-0.032 0.60525,-0.0484 0.0568,-0.46377 0.11325,-0.92779 0.16947,-1.39208 -0.0562,-0.85114 -0.11271,-1.70251 -0.16947,-2.55416 -0.30236,-0.92377 -0.60498,-1.84777 -0.90787,-2.77205 -0.4557,-0.49201 -0.91165,-0.98427 -1.36787,-1.47681 -0.31044,-0.16114 -0.621,-0.32247 -0.93209,-0.4842 -0.67507,-0.0668 -1.34982,-0.13381 -2.02521,-0.20112 -1.19883,0.35313 -2.39787,0.70598 -3.59704,1.05852 -0.0156,-0.26267 -0.0314,-0.52563 -0.0475,-0.78886 1.21286,-0.51826 2.42528,-1.03671 3.63763,-1.5555 0.26848,0.0749 0.53662,0.14952 0.80461,0.2239 0.0667,-0.11439 0.13316,-0.22896 0.19938,-0.3439 0.20665,-0.0298 0.41281,-0.0597 0.61891,-0.09 0.1068,0.19346 0.21324,0.38649 0.31952,0.57943 0.14693,-0.18994 0.29343,-0.37995 0.43983,-0.57042 0.22119,0.0526 0.44171,0.10492 0.66251,0.15706 0.0575,0.21467 0.11444,0.42829 0.1714,0.64255 0.12174,-0.19242 0.24299,-0.38476 0.36385,-0.57715 0.18199,0.10569 0.36437,0.2115 0.54591,0.3167 -0.0331,0.24219 -0.0664,0.48408 -0.10003,0.72641 0.2036,-0.12952 0.40515,-0.25817 0.60884,-0.38862 0.14219,0.0814 0.28272,0.16167 0.42368,0.2421 0.0164,0.25044 0.0325,0.50061 0.0484,0.75052 0.31096,-0.0401 0.62165,-0.0804 0.93208,-0.12106 0.12536,0.11729 0.25044,0.2343 0.37526,0.35105 -0.004,0.29483 -0.008,0.58938 -0.0121,0.88367 0.21816,-0.032 0.43604,-0.0643 0.65367,-0.0968 0.17377,0.23026 0.34727,0.46025 0.52051,0.68998 -0.0724,0.23027 -0.14499,0.46026 -0.21789,0.68999 0.24237,0.0648 0.48447,0.12938 0.7263,0.19368 0.0729,0.23833 0.14553,0.47639 0.2179,0.7142 -0.14097,0.15763 -0.28219,0.31499 -0.42368,0.47209 0.2343,0.17781 0.46833,0.35535 0.70209,0.53262 0.0689,0.28272 0.13746,0.56517 0.20579,0.84735 -0.18132,0.23027 -0.36289,0.46026 -0.54473,0.68999 0.22623,0.1536 0.45219,0.30692 0.67788,0.45999 0.0124,0.2464 0.0245,0.49272 0.0363,0.7384 -0.28731,0.27472 -0.57509,0.54938 -0.86338,0.824 0.22029,0.24193 0.4397,0.48292 0.65956,0.72443 0.0844,0.36016 0.16841,0.71917 0.25222,1.07837 -0.25395,0.18991 -0.50814,0.37955 -0.76262,0.56893 0.16571,0.29483 0.33114,0.58938 0.49631,0.88367 -0.0441,0.20605 -0.0885,0.41183 -0.13315,0.61735 -0.18939,0.24237 -0.37903,0.48447 -0.56894,0.72631 0.14956,0.21008 0.29885,0.4199 0.44789,0.62945 -0.0159,0.11325 -0.032,0.22623 -0.0484,0.33895 -0.17727,0.0931 -0.35481,0.18587 -0.53262,0.27841 0.11325,0.19395 0.22623,0.38763 0.33894,0.58104 -0.0299,0.26124 -0.06,0.52221 -0.0904,0.78291 -0.10855,0.25054 -0.21736,0.50081 -0.32644,0.75081 -0.0541,0.18526 -0.10855,0.37024 -0.16322,0.55495 0.0438,0.40289 0.0873,0.80549 0.13058,1.20783 0.21789,0.34847 0.43552,0.69667 0.65288,1.04461 0.30494,0.70756 0.60961,1.41484 0.91403,2.12186 -0.16976,0.16655 -0.33979,0.33284 -0.51007,0.49886 0.0574,0.22363 0.11454,0.44699 0.17141,0.67009 -0.1296,0.20805 -0.25946,0.41582 -0.38958,0.62334 -0.1348,0.0107 -0.26985,0.021 -0.40517,0.0312 -0.16077,0.19246 -0.3218,0.38465 -0.48309,0.57659 -0.2283,0.10415 -0.45686,0.20804 -0.68568,0.31167 -0.34777,-0.26986 -0.6958,-0.53997 -1.04409,-0.81035 -0.4257,0.28597 -0.85164,0.57166 -1.27785,0.8571 -0.0673,-0.18674 -0.1348,-0.37374 -0.20259,-0.56101 -0.19194,-0.17116 -0.38413,-0.34257 -0.57659,-0.51426 -0.0829,0.13013 -0.16596,0.26 -0.24934,0.38959 0.1561,0.17169 0.31194,0.3431 0.46751,0.51426 0.0159,1.1275 0.0314,2.25468 0.0467,3.38163 0.27038,0.4418 0.54049,0.88333 0.81034,1.3246 0.28597,0.58206 0.57166,1.16383 0.8571,1.74535 0.8314,0.46259 1.6625,0.92489 2.49336,1.38693 0.71712,0.63921 1.43395,1.27812 2.15053,1.91678 0.62362,0.50414 1.24695,1.008 1.87002,1.5116 0.49895,0.15611 0.99761,0.31194 1.49602,0.46751 0.40025,0.57687 0.80022,1.15344 1.19993,1.72977 0.69115,0.86777 1.38201,1.73523 2.07261,2.60245 0.31194,0.36908 0.62361,0.73789 0.93501,1.10643 0.42103,1.0288 0.84178,2.05729 1.26227,3.08554 0.12494,0.61842 0.2496,1.23656 0.37401,1.85444 -0.15038,0.80543 -0.30102,1.61056 -0.45193,2.41545 -0.088,0.51453 -0.17634,1.02878 -0.26492,1.54277 -0.0569,0.7379 -0.11401,1.4755 -0.17142,2.21286 -0.10362,0.66518 -0.20751,1.33006 -0.31167,1.99469 0.17689,0.43661 0.35349,0.87294 0.52984,1.30902 -0.0153,0.36389 -0.0309,0.72749 -0.0468,1.09085 0.0418,0.52492 0.0834,1.04955 0.12467,1.57393 0.11455,0.31714 0.22882,0.634 0.34284,0.9506 0.11454,0.31713 0.22882,0.63399 0.34284,0.95059 -0.0777,0.24442 -0.15557,0.48855 -0.23376,0.73243 0.0403,0.14498 0.12016,0.43413 0.12016,0.43413 l 13.31248,7.42044 -68.354825,0.10783 0.324107,-36.75786 z"
       sodipodi:nodetypes="ccccccccccccccccccccccccccccccccccccccccccccccsccccccccccccccccccccccccccccccccccccccccccccccccccccccccccccccccccccccccccccccccccccccccccccccccccccccccc" />
  </g>
  <g
     inkscape:groupmode="layer"
     id="layer4"
     inkscape:label="details"
     style="display:inline"
     transform="translate(-77.035719,-124.91925)">
    <path
       style="fill:#000000;fill-opacity:1;stroke:none;stroke-width:0.25"
       d="m 111.69869,181.4463 c -0.22987,0.21707 -0.11019,1.47528 0.01,2.73377 0.42419,0.26988 0.8484,0.53978 1.30983,0.83274 0.46143,0.29295 0.95888,0.60821 1.45696,0.92386 -0.0532,-0.83772 -0.10642,-1.67484 -0.33772,-2.18495 -0.2313,-0.51011 -0.64079,-0.69208 -1.13502,-1.19496 -0.49424,-0.50289 -1.07371,-1.32753 -1.30357,-1.11046 z"
       id="path3144"
       inkscape:path-effect="#path-effect3146"
       inkscape:original-d="m 111.34909,180.4046 c 0.11997,1.25875 0.35912,3.77547 0.35912,3.77547 0,0 0.84836,0.53985 1.27256,0.80964 0.49866,0.31612 1.49423,0.94696 1.49423,0.94696 0,0 -0.10618,-1.67486 -0.15969,-2.51316 -0.40938,-0.18178 -0.81887,-0.36375 -1.22847,-0.54592 -0.57877,-0.82375 -1.15824,-1.6484 -1.73775,-2.47299 z"
       sodipodi:nodetypes="sccccss" />
    <path
       style="fill:#000000;fill-opacity:1;stroke:none;stroke-width:0.25"
       d="m 124.06581,184.90308 c -0.55971,0.0757 -1.61414,0.964 -1.98238,1.63944 -0.36825,0.67544 -0.0505,1.13766 0.21626,1.71937 0.26673,0.58171 0.48241,1.28258 0.6982,1.98377 0,0 4.62282,3.37471 4.62282,3.37471 0,0 -1.30522,-2.98664 -1.30522,-2.98664 -0.34666,-0.79444 -0.69319,-1.58855 -0.95322,-2.31078 -0.26002,-0.72222 -0.43335,-1.3722 -0.55255,-2.06555 -0.1192,-0.69336 -0.1842,-1.43 -0.74391,-1.35432 z"
       id="path3816"
       inkscape:path-effect="#path-effect3818"
       inkscape:original-d="m 124.5605,184.09046 c -1.05416,0.88859 -2.10859,1.77691 -3.1633,2.66498 0.31804,0.46248 0.63582,0.9247 0.95333,1.38665 0.21605,0.70146 0.64736,2.10357 0.64736,2.10357 l 4.62282,3.37471 -1.30522,-2.98664 c 0,0 -0.69306,-1.58861 -1.03999,-2.38331 -0.17307,-0.64974 -0.3464,-1.29972 -0.52,-1.94998 -0.0647,-0.73642 -0.12973,-1.47306 -0.195,-2.20998 z"
       sodipodi:nodetypes="ccccccccc" />
  </g>
</svg>
